<svg width="18" height="19" viewBox="0 0 18 19" fill="none" xmlns="http://www.w3.org/2000/svg">
<path d="M9 19C8.783 19 8.5749 18.909 8.42146 18.747C8.26802 18.5851 8.18182 18.3654 8.18182 18.1364V15.5455H4.90909C4.4751 15.5455 4.05888 15.3635 3.75201 15.0395C3.44513 14.7156 3.27273 14.2763 3.27273 13.8182V5.18182C3.27273 4.72372 3.44513 4.28438 3.75201 3.96045C4.05888 3.63653 4.4751 3.45455 4.90909 3.45455H16.3636C16.7976 3.45455 17.2138 3.63653 17.5207 3.96045C17.8276 4.28438 18 4.72372 18 5.18182V13.8182C18 14.2763 17.8276 14.7156 17.5207 15.0395C17.2138 15.3635 16.7976 15.5455 16.3636 15.5455H13.0091L9.98182 18.7495C9.81818 18.9136 9.61364 19 9.40909 19H9ZM9.81818 13.8182V16.4782L12.3382 13.8182H16.3636V5.18182H4.90909V13.8182H9.81818ZM1.63636 12.0909H0V1.72727C0 1.26917 0.172402 0.829833 0.47928 0.505907C0.786158 0.18198 1.20237 0 1.63636 0H14.7273V1.72727H1.63636V12.0909Z" fill="#86868A"/>
</svg>
