<?xml version="1.0" standalone="no"?>
<!DOCTYPE svg PUBLIC "-//W3C//DTD SVG 20010904//EN"
 "http://www.w3.org/TR/2001/REC-SVG-20010904/DTD/svg10.dtd">
<svg version="1.0" xmlns="http://www.w3.org/2000/svg"
 width="96.000000pt" height="96.000000pt" viewBox="0 0 96.000000 96.000000"
 preserveAspectRatio="xMidYMid meet">

<g transform="translate(0.000000,96.000000) scale(0.100000,-0.100000)"
fill="#000000" stroke="none">
<path d="M425 731 c-122 -32 -197 -125 -198 -248 -1 -107 75 -217 165 -238 25
-6 27 -4 33 38 5 33 3 52 -7 66 -15 21 -15 21 -32 2 -10 -11 -31 -25 -48 -32
-27 -11 -32 -10 -44 6 -21 28 -18 118 4 145 12 14 24 20 31 16 9 -6 7 -14 -9
-31 -20 -21 -20 -26 -8 -50 l14 -27 27 41 c16 24 35 41 46 41 10 0 25 7 32 16
11 14 10 20 -14 40 -40 34 -32 84 14 84 23 0 59 -47 59 -76 0 -17 6 -24 19
-24 11 0 23 5 26 10 3 6 19 10 35 10 16 0 32 5 35 10 3 6 15 10 26 10 13 0 19
7 19 24 0 46 -18 76 -44 76 -18 0 -24 4 -20 15 14 35 67 -5 103 -78 l21 -41
-31 -32 c-17 -18 -43 -34 -59 -37 -24 -5 -30 -14 -49 -76 -15 -49 -19 -83 -15
-111 4 -22 8 -40 10 -40 3 0 22 11 43 24 133 84 162 254 66 381 -49 63 -173
106 -250 86z"/>
</g>
</svg>
