<svg width="15" height="16" viewBox="0 0 15 16" fill="none" xmlns="http://www.w3.org/2000/svg">
<mask id="path-1-inside-1_28_13078" fill="white">
<path d="M3.33333 8H4.16667H5V9.6H3.33333V8ZM15 3.2V14.4C15 14.8243 14.8244 15.2313 14.5118 15.5314C14.1993 15.8314 13.7754 16 13.3333 16H1.66667C1.22464 16 0.800716 15.8314 0.488155 15.5314C0.175595 15.2313 0 14.8243 0 14.4V3.2C0 2.77565 0.175595 2.36869 0.488155 2.06863C0.800716 1.76857 1.22464 1.6 1.66667 1.6H2.5V0H4.16667V1.6H10.8333V0H12.5V1.6H13.3333C13.7754 1.6 14.1993 1.76857 14.5118 2.06863C14.8244 2.36869 15 2.77565 15 3.2ZM1.66667 4.8H13.3333V3.2H1.66667V4.8ZM13.3333 14.4V6.4H1.66667V14.4H13.3333ZM10 9.6V8H11.6667V9.6H10ZM6.66667 9.6V8H8.33333V9.6H6.66667ZM3.33333 11.2H5V12.8H3.33333V11.2ZM10 12.8V11.2H11.6667V12.8H10ZM6.66667 12.8V11.2H8.33333V12.8H6.66667Z"/>
</mask>
<path d="M3.33333 8V6H1.33333V8H3.33333ZM5 8H7V6H5V8ZM5 9.6V11.6H7V9.6H5ZM3.33333 9.6H1.33333V11.6H3.33333V9.6ZM0 14.4H-2H0ZM1.66667 1.6V-0.4V1.6ZM2.5 1.6V3.6H4.5V1.6H2.5ZM2.5 0V-2H0.5V0H2.5ZM4.16667 0H6.16667V-2H4.16667V0ZM4.16667 1.6H2.16667V3.6H4.16667V1.6ZM10.8333 1.6V3.6H12.8333V1.6H10.8333ZM10.8333 0V-2H8.83333V0H10.8333ZM12.5 0H14.5V-2H12.5V0ZM12.5 1.6H10.5V3.6H12.5V1.6ZM13.3333 1.6V-0.4V1.6ZM1.66667 4.8H-0.333333V6.8H1.66667V4.8ZM13.3333 4.8V6.8H15.3333V4.8H13.3333ZM13.3333 3.2H15.3333V1.2H13.3333V3.2ZM1.66667 3.2V1.2H-0.333333V3.2H1.66667ZM13.3333 14.4V16.4H15.3333V14.4H13.3333ZM13.3333 6.4H15.3333V4.4H13.3333V6.4ZM1.66667 6.4V4.4H-0.333333V6.4H1.66667ZM1.66667 14.4H-0.333333V16.4H1.66667V14.4ZM10 9.6H8V11.6H10V9.6ZM10 8V6H8V8H10ZM11.6667 8H13.6667V6H11.6667V8ZM11.6667 9.6V11.6H13.6667V9.6H11.6667ZM6.66667 9.6H4.66667V11.6H6.66667V9.6ZM6.66667 8V6H4.66667V8H6.66667ZM8.33333 8H10.3333V6H8.33333V8ZM8.33333 9.6V11.6H10.3333V9.6H8.33333ZM3.33333 11.2V9.2H1.33333V11.2H3.33333ZM5 11.2H7V9.2H5V11.2ZM5 12.8V14.8H7V12.8H5ZM3.33333 12.8H1.33333V14.8H3.33333V12.8ZM10 12.8H8V14.8H10V12.8ZM10 11.2V9.2H8V11.2H10ZM11.6667 11.2H13.6667V9.2H11.6667V11.2ZM11.6667 12.8V14.8H13.6667V12.8H11.6667ZM6.66667 12.8H4.66667V14.8H6.66667V12.8ZM6.66667 11.2V9.2H4.66667V11.2H6.66667ZM8.33333 11.2H10.3333V9.2H8.33333V11.2ZM8.33333 12.8V14.8H10.3333V12.8H8.33333ZM3 8V9.6H7V8H3ZM5 7.6H3.33333V11.6H5V7.6ZM5.33333 9.6V8H1.33333V9.6H5.33333ZM13 3.2V14.4H17V3.2H13ZM13 14.4C13 14.267 13.0558 14.1567 13.1268 14.0886L15.8969 16.9741C16.593 16.3059 17 15.3817 17 14.4H13ZM13.1268 14.0886C13.195 14.0231 13.2707 14 13.3333 14V18C14.28 18 15.2036 17.6397 15.8969 16.9741L13.1268 14.0886ZM13.3333 14H1.66667V18H13.3333V14ZM1.66667 14C1.72932 14 1.80502 14.0231 1.87322 14.0886L-0.896908 16.9741C-0.203591 17.6397 0.719956 18 1.66667 18V14ZM1.87322 14.0886C1.94419 14.1567 2 14.267 2 14.4H-2C-2 15.3817 -1.593 16.3059 -0.896908 16.9741L1.87322 14.0886ZM2 14.4V3.2H-2V14.4H2ZM2 3.2C2 3.33304 1.94419 3.44327 1.87322 3.5114L-0.896908 0.625854C-1.593 1.2941 -2 2.21827 -2 3.2H2ZM1.87322 3.5114C1.80503 3.57687 1.72933 3.6 1.66667 3.6V-0.4C0.719952 -0.4 -0.203593 -0.039728 -0.896908 0.625854L1.87322 3.5114ZM1.66667 3.6H2.5V-0.4H1.66667V3.6ZM4.5 1.6V0H0.5V1.6H4.5ZM2.5 2H4.16667V-2H2.5V2ZM2.16667 0V1.6H6.16667V0H2.16667ZM4.16667 3.6H10.8333V-0.4H4.16667V3.6ZM12.8333 1.6V0H8.83333V1.6H12.8333ZM10.8333 2H12.5V-2H10.8333V2ZM10.5 0V1.6H14.5V0H10.5ZM12.5 3.6H13.3333V-0.4H12.5V3.6ZM13.3333 3.6C13.2707 3.6 13.195 3.57687 13.1268 3.5114L15.8969 0.625854C15.2036 -0.0397274 14.28 -0.4 13.3333 -0.4V3.6ZM13.1268 3.5114C13.0558 3.44327 13 3.33304 13 3.2H17C17 2.21826 16.593 1.2941 15.8969 0.625854L13.1268 3.5114ZM1.66667 6.8H13.3333V2.8H1.66667V6.8ZM15.3333 4.8V3.2H11.3333V4.8H15.3333ZM13.3333 1.2H1.66667V5.2H13.3333V1.2ZM-0.333333 3.2V4.8H3.66667V3.2H-0.333333ZM15.3333 14.4V6.4H11.3333V14.4H15.3333ZM13.3333 4.4H1.66667V8.4H13.3333V4.4ZM-0.333333 6.4V14.4H3.66667V6.4H-0.333333ZM1.66667 16.4H13.3333V12.4H1.66667V16.4ZM12 9.6V8H8V9.6H12ZM10 10H11.6667V6H10V10ZM9.66667 8V9.6H13.6667V8H9.66667ZM11.6667 7.6H10V11.6H11.6667V7.6ZM8.66667 9.6V8H4.66667V9.6H8.66667ZM6.66667 10H8.33333V6H6.66667V10ZM6.33333 8V9.6H10.3333V8H6.33333ZM8.33333 7.6H6.66667V11.6H8.33333V7.6ZM3.33333 13.2H5V9.2H3.33333V13.2ZM3 11.2V12.8H7V11.2H3ZM5 10.8H3.33333V14.8H5V10.8ZM5.33333 12.8V11.2H1.33333V12.8H5.33333ZM12 12.8V11.2H8V12.8H12ZM10 13.2H11.6667V9.2H10V13.2ZM9.66667 11.2V12.8H13.6667V11.2H9.66667ZM11.6667 10.8H10V14.8H11.6667V10.8ZM8.66667 12.8V11.2H4.66667V12.8H8.66667ZM6.66667 13.2H8.33333V9.2H6.66667V13.2ZM6.33333 11.2V12.8H10.3333V11.2H6.33333ZM8.33333 10.8H6.66667V14.8H8.33333V10.8ZM3.33333 10H4.16667V6H3.33333V10ZM4.16667 10H5V6H4.16667V10Z" fill="#808080" mask="url(#path-1-inside-1_28_13078)"/>
</svg>
